<?xml version="1.0" standalone="no"?>
<!DOCTYPE svg PUBLIC "-//W3C//DTD SVG 20010904//EN"
 "http://www.w3.org/TR/2001/REC-SVG-20010904/DTD/svg10.dtd">
<svg version="1.0" xmlns="http://www.w3.org/2000/svg"
 width="16.000000pt" height="16.000000pt" viewBox="0 0 16.000000 16.000000"
 preserveAspectRatio="xMidYMid meet">
<metadata>
Created for Safari pinned tab
</metadata>
<g transform="translate(0.000000,16.000000) scale(0.100000,-0.100000)"
fill="#000000" stroke="none">
<path d="M0 80 l0 -80 80 0 80 0 0 80 0 80 -80 0 -80 0 0 -80z m70 35 l20 -35 20 35 
c11 19 23 35 27 35 4 0 8 -4 8 -10 0 -5 -11 -25 -25 -44 l-25 -35 -25 35 c-14 19 
-25 39 -25 44 0 6 4 10 8 10 4 0 16 -16 27 -35z"/>
</g>
</svg>